<?xml version="1.0" encoding="UTF-8" standalone="no"?>
<!-- Created with Inkscape (http://www.inkscape.org/) -->

<svg
   width="175mm"
   height="100mm"
   viewBox="0 0 661.41726 377.9525"
   version="1.1"
   id="svg1"
   xml:space="preserve"
   inkscape:version="1.3.2 (091e20e, 2023-11-25, custom)"
   sodipodi:docname="icona_chatting.svg"
   xmlns:inkscape="http://www.inkscape.org/namespaces/inkscape"
   xmlns:sodipodi="http://sodipodi.sourceforge.net/DTD/sodipodi-0.dtd"
   xmlns="http://www.w3.org/2000/svg"
   xmlns:svg="http://www.w3.org/2000/svg"><sodipodi:namedview
     id="namedview1"
     pagecolor="#ffffff"
     bordercolor="#000000"
     borderopacity="0.25"
     inkscape:showpageshadow="2"
     inkscape:pageopacity="0.0"
     inkscape:pagecheckerboard="0"
     inkscape:deskcolor="#d1d1d1"
     inkscape:document-units="mm"
     inkscape:zoom="1"
     inkscape:cx="330"
     inkscape:cy="197.5"
     inkscape:window-width="1920"
     inkscape:window-height="991"
     inkscape:window-x="-9"
     inkscape:window-y="-9"
     inkscape:window-maximized="1"
     inkscape:current-layer="layer1" /><defs
     id="defs1"><filter
       inkscape:collect="always"
       style="color-interpolation-filters:sRGB"
       id="filter4"
       x="-0.037910502"
       y="-0.049650071"
       width="1.075821"
       height="1.0993001"><feGaussianBlur
         inkscape:collect="always"
         stdDeviation="0.30920959"
         id="feGaussianBlur4" /></filter></defs><g
     inkscape:label="Livello 1"
     inkscape:groupmode="layer"
     id="layer1"><circle
       style="fill:#e13a43;fill-opacity:1;stroke:none;stroke-width:1.04856;stroke-dasharray:none;stroke-dashoffset:0"
       id="path39"
       cx="492.5"
       cy="239.75"
       r="83.75" /><circle
       style="fill:#d9c6bc;fill-opacity:1;stroke:none;stroke-width:0.194427;stroke-dasharray:none"
       id="circle56"
       cx="485.25"
       cy="237.75"
       r="80.25" /><path
       style="fill:#e0ac58;fill-opacity:1;stroke:none;stroke-width:0.200315;stroke-dasharray:none;stroke-dashoffset:0"
       d="m 505.31251,249.93751 27.33211,10.82636 c 6.6534,14.43443 16.76071,32.38698 17.85539,48.17364 0.0348,7.4777 -34.33706,10.81063 -59.70723,7.55865 l -3.18199,0.88388 3.62393,-10.78338 -13.08101,-0.85171 -13.17033,6.46437 h -19.0035 c -6.75455,-15.65021 -15.78867,-30.73053 -17.32411,-47.68551 0.0634,-2.72054 0.65542,-4.96808 2.29809,-6.27557 2.19489,2.02406 4.54802,2.99321 6.99249,3.35339 2.72867,0.0797 4.77694,-0.36101 6.08899,-1.36466 l 2.78423,2.07713 0.0442,2.43068 13.52341,21.9645 5.96622,-6.85009 13.656,-28.59363 z"
       id="path52"
       sodipodi:nodetypes="ccccccccccccccccccc" /><path
       style="fill:#ffffff;fill-opacity:1;stroke:none;stroke-width:0.200315;stroke-dasharray:none;stroke-dashoffset:0"
       d="m 489.93751,252.25001 c -2.37155,1.50926 -4.81122,2.42481 -6.90625,6.34375 -0.92341,2.0377 1.14764,4.04041 2.6875,3.90625 7.27215,1.16329 13.98425,-6.04582 20.125,-10.0625 l -0.875,-3.59375 z"
       id="path51"
       sodipodi:nodetypes="cccccc" /><path
       style="fill:#46110f;fill-opacity:1;stroke:none;stroke-width:0.200315;stroke-dasharray:none;stroke-dashoffset:0"
       d="m 475.85515,218.91542 c -9.22118,19.65998 -12.15448,59.53918 -9.63433,61.07635 0.67173,0.34576 1.32152,-0.48807 1.64394,-1.15372 10.31089,-21.28755 15.06411,-21.53878 26.25904,-29.49452 z"
       id="path47"
       sodipodi:nodetypes="ccscc" /><path
       style="fill:#ed8563;fill-opacity:1;stroke:none;stroke-width:0.200315;stroke-dasharray:none;stroke-dashoffset:0"
       d="m 490.06357,245.52032 v 5.97969 c -0.58055,1.64897 -1.14424,3.3148 -1.43856,5.25 -0.11709,0.95511 1.85359,0.87137 2.8125,0.5625 l 13.4375,-8.5 -1,-14.5625 z"
       id="path50"
       sodipodi:nodetypes="ccccccc" /><path
       style="fill:#ed8563;fill-opacity:1;stroke:none;stroke-width:0.200315;stroke-dasharray:none;stroke-dashoffset:0"
       d="m 479.71876,210.59376 c -1.81663,2.08766 -2.95521,5.73124 -4.53125,8.78125 l 0.125,2.5 0.3125,8.3125 c 0.59862,4.19251 4.10266,8.32805 8.9375,12.4375 1.76337,1.3487 3.5898,0.89085 4.8125,0.0625 4.76384,-3.22989 8.26438,-7.06553 11,-11.5 -8.19745,-6.18741 -15.042,-13.07308 -20.65625,-20.59375 z"
       id="path48"
       sodipodi:nodetypes="cccccccc" /><path
       style="fill:#e13a43;fill-opacity:1;stroke:none;stroke-width:0.95622;stroke-dasharray:none;stroke-dashoffset:0"
       d="m 195.53149,230.89204 7.51301,17.4567 -17.54509,8.3085 z"
       id="path38"
       sodipodi:nodetypes="cccc" /><path
       style="fill:#731c27;fill-opacity:1;stroke:none;stroke-width:0.95622;stroke-dasharray:none;stroke-dashoffset:0"
       d="m 198.22734,250.53636 v 6.71751 l -6.14299,-4.33103 2.82842,-17.01475 -0.35355,16.30765 z"
       id="path37" /><circle
       style="fill:#e1b363;fill-opacity:1;stroke:none;stroke-width:0.194427;stroke-dasharray:none"
       id="circle25"
       cx="161.5"
       cy="121.75"
       r="80.25" /><circle
       style="fill:#d9c6bc;fill-opacity:1;stroke:none;stroke-width:0.194427;stroke-dasharray:none"
       id="path25"
       cx="167.25"
       cy="122.25"
       r="80.25" /><path
       style="fill:#ec875f;fill-opacity:1"
       d="m 160.45475,87.466576 -0.0564,16.026964 c 7.48357,6.74306 14.00548,8.19695 19.32265,3.02481 l -0.0958,-12.548201 z"
       id="path5"
       sodipodi:nodetypes="ccccc" /><path
       style="fill:#e55629;fill-opacity:1;filter:url(#filter4)"
       d="m 160.72351,84.491429 -0.31923,3.447718 c 5.4165,7.203406 11.62697,12.682503 19.57513,11.278283 l -0.29345,-4.829774 c -6.32082,-0.521679 -12.64163,-5.222758 -18.96245,-9.896227 z"
       id="path4"
       sodipodi:nodetypes="ccccc" /><path
       style="fill:#ed856b;fill-opacity:1"
       d="m 157.40348,78.362153 c 5.40492,12.985886 17.13229,16.482346 26.43251,16.08935 6.31301,-9.989026 4.76635,-22.686835 5.39504,-34.030253 -6.31829,3.069471 -15.72003,2.536249 -25.57058,-4.150032 0.76808,4.182077 -1.83903,6.707092 -4.98003,10.119692 l 0.51077,4.054261 -4.34157,-5.235424 -3.06464,3.575411 c -0.47,3.357021 -0.3798,6.553982 1.66001,9.193915 z"
       id="path2"
       sodipodi:nodetypes="cccccccccc" /><path
       style="fill:#800000"
       d="m 178.28133,41.4588 c 2.17256,-0.686572 3.08327,-3.051005 1.53232,-3.064638 -5.18874,-0.167024 -13.4711,4.761323 -21.45247,9.193915 -3.80444,0.936902 -9.2322,5.818995 -5.87389,10.470847 -2.29303,4.400112 -2.98157,9.103857 -1.02154,14.014336 -0.8999,4.685454 4.47163,10.271115 6.51235,11.268929 h 1.78771 l -2.29848,-5.10773 c -1.40299,-0.07244 -3.5536,-0.971288 -5.10773,-2.777328 -1.54999,-2.192541 -0.0757,-6.804372 2.04309,-7.055053 1.71603,-0.183047 3.91547,1.160081 4.85235,2.298479 l -0.38308,-4.086184 c 3.3918,-2.406798 5.82828,-6.68305 4.72465,-10.598541 7.47005,5.732826 15.70627,9.722227 25.28326,4.724651 v 4.086184 c 3.5717,-0.838576 5.13921,-3.430819 6.00159,-6.64005 6.40884,-5.337453 3.94007,-23.671428 -16.60013,-16.727817 z"
       id="path1"
       sodipodi:nodetypes="ccccccccccccccccc" /><path
       style="fill:#ffffff;fill-opacity:1"
       d="m 173.35533,80.92035 c 3.74492,1.474026 7.42558,3.197045 11.82836,2.12188 -1.05842,1.113263 -2.75094,3.997091 -5.50786,3.656857 -2.75692,-0.340234 -5.429,-3.343745 -6.3205,-5.778737 z"
       id="path3"
       sodipodi:nodetypes="cczc" /><path
       style="fill:#b12b2b;fill-opacity:1"
       d="m 179.66588,99.27139 1.30617,-4.002135 -1.34078,-0.723144 z"
       id="path6"
       sodipodi:nodetypes="cccc" /><path
       style="fill:#b72640;fill-opacity:1;stroke:none;stroke-width:0.188976;stroke-dasharray:none"
       d="m 192.04015,180.37809 c 11.87366,-2.76123 36.26292,-9.4346 36.06246,3.35876 l 5.12652,-2.12132 c 0,0 -25.80941,-31.81981 -27.04684,-31.46625 -1.23744,0.35355 -14.14214,30.22881 -14.14214,30.22881 z"
       id="path22"
       sodipodi:nodetypes="cccsc" /><path
       style="fill:#d93d44;fill-opacity:1;stroke:none;stroke-width:0.188976;stroke-dasharray:none"
       d="m 195.61988,107.76707 c 7.8798,2.43292 14.01867,7.47724 20.28513,12.33017 l 16.845,61.40276 c -7.75632,-5.94587 -17.9162,-6.4576 -29.50001,-3.75 L 204,159.5 c -2.80684,7.21238 -4.15817,14.7259 -11.5,21 l -8.25,1.5 c -5.03031,-17.48011 -3.48666,-35.50806 -2.75,-53.46875 3.92844,-8.06103 4.39358,-16.55497 3,-25.28125 z"
       id="path16"
       sodipodi:nodetypes="cccccccccc" /><path
       style="fill:#ac2940;fill-opacity:1"
       d="m 194.64761,107.67868 1.63519,1.76777 -8.08754,0.17678 -0.30936,4.99394 2.82843,6.01041 -1.98874,2.03293 -4.48571,4.24264 0.90598,-21.74353 z"
       id="path11"
       sodipodi:nodetypes="ccccccccc" /><path
       style="fill:#e75661;fill-opacity:1"
       d="m 180.96896,95.259451 15.19174,12.761059 -10.03207,-0.35355 -0.17678,5.92202 2.74004,4.59619 -4.99394,10.29724 -2.20971,0.0884 0.26516,-3.62392 1.94455,-5.74524 -0.0884,-5.3475 -3.92776,-9.8995 0.0448,-4.81011 z"
       id="path7"
       sodipodi:nodetypes="ccccccccccccc" /><path
       style="fill:#d93d44;fill-opacity:1"
       d="M 143.21317,108.23804 126.375,117.5 l -18.78125,51.15625 7.1348,1.21182 29.3652,-21.61807 0.0312,-5.75 3.96875,3 10.5,-7.5 -1.59375,-9.25 c -4.30468,-10.11354 -2.83153,-17.91594 -2.375,-26.125 z"
       id="path12"
       sodipodi:nodetypes="ccccccccccc" /><path
       style="fill:#ac2940;fill-opacity:1"
       d="m 145.4153,107.67868 -1.63519,1.76777 8.08754,0.17678 0.30936,4.99394 -2.82843,6.01041 1.98874,2.03293 3.62224,4.25 -0.0425,-21.75089 z"
       id="path10"
       sodipodi:nodetypes="ccccccccc" /><path
       style="fill:#e75661;fill-opacity:1"
       d="m 158.4139,95.259451 -15.19174,12.761059 10.03207,-0.35355 0.17678,5.92202 -2.74004,4.59619 4.11006,10.51821 2.20971,0.0884 -0.26516,-3.62392 -1.38205,-5.93274 0.40978,-5.38097 4.62883,-10.41244 0.0823,-4.76592 z"
       id="path8"
       sodipodi:nodetypes="ccccccccccccc" /><path
       style="fill:#b12b2b;fill-opacity:1"
       d="m 160.48054,98.73082 -2.19506,-3.461565 2.16891,-1.191894 z"
       id="path9"
       sodipodi:nodetypes="cccc" /><path
       style="fill:#972a2f;fill-opacity:1"
       d="m 144.04687,148.40625 v -6.1875 l 4.10938,3.34375 z"
       id="path13"
       sodipodi:nodetypes="cccc" /><path
       style="opacity:0.502294;fill:#ffffff;fill-opacity:1;stroke:none;stroke-width:0.188976;stroke-dasharray:none"
       d="m 189.11797,126.71786 c 0.59399,0.27678 1.06293,-0.35238 1.25214,-0.82536 0.0815,-0.30835 0.0921,-0.69095 -0.43586,-1.03535 -0.61034,-0.39811 -1.14405,-1.15871 -0.58994,-1.60003 1.21742,-0.71948 1.51656,-2.33696 1.54679,-3.29247 0.0884,-1.73695 0.17678,-3.23463 0.26516,-4.77297 -0.4043,1.24222 -0.59599,2.06037 -0.95017,4.30894 -0.12268,2.37384 -2.1805,2.43295 -2.58536,4.08796 0.0505,1.83536 0.5665,2.51268 1.49724,3.12928 z"
       id="path14"
       sodipodi:nodetypes="ccscccccc" /><path
       style="opacity:0.502294;fill:#ffffff;fill-opacity:1;stroke:none;stroke-width:0.188976;stroke-dasharray:none"
       d="m 194.33335,130.04361 c 0.17678,0.0221 1.39701,0.152 1.39701,0.152 1.63196,-0.98544 2.93846,-2.85987 2.87263,-3.0273 -0.0941,-0.36383 -2.52174,-3.89929 -3.35876,-4.94975 -0.65081,-0.50619 0.90598,-5.87782 0.90598,-5.87782 -0.0212,-0.29689 -2.67795,4.66265 -2.09922,5.94411 0.34335,0.67645 2.30961,4.05932 1.87335,4.93034 -0.40836,0.59888 -1.14353,1.59224 -1.59099,2.82842 z"
       id="path15"
       sodipodi:nodetypes="cccccccc" /><path
       style="fill:#2f2f48;fill-opacity:1;stroke:none;stroke-width:0.188976;stroke-dasharray:none"
       d="m 180.15192,148.73506 2.82843,1.94455 0.83969,3.31456 1.72357,1.81196 h 13.47922 l 1.96664,-1.96664 2.76214,-21.9866 -18.29639,-0.17678 -3.88909,1.85616 -0.0442,0.97227 -3.0494,-0.0884 4.59619,5.25911 -0.0884,8.39689 -3.0936,-1.06066 z"
       id="path18" /><path
       style="fill:#b72640;fill-opacity:1;stroke:none;stroke-width:0.188976;stroke-dasharray:none"
       d="m 150.85118,167.11984 -19.35705,17.27993 0.72121,8.29647 c 7.90541,-7.5967 12.24263,-17.2236 18.63585,-25.5764 z"
       id="path21"
       sodipodi:nodetypes="ccccc" /><path
       style="fill:#ea845f;fill-opacity:1;stroke:none;stroke-width:0.188976;stroke-dasharray:none"
       d="m 110,169 c -2.37376,5.88015 -4.66808,11.78527 -4.1875,18.5625 0.47439,1.85894 2.42696,3.73971 4.8125,4.4375 1.90611,0.44835 3.88691,0.67261 5.875,0.875 10.61146,-2.51553 35.36504,-24.1036 48.9375,-43.125 l 12.3125,0.1875 c 2.727,0.0525 3.72871,-2.80434 2,-3.8125 3.04132,-1.45419 2.22443,-3.97287 1.4375,-4.875 4.04481,-1.59581 0.83031,-6.30903 -5.1875,-7.8125 8.07515,0.59453 9.8602,-0.92667 9.9375,-3.875 h -17.75 c -3.09699,0.95832 -6.79498,4.30412 -9.38814,8.05549 -13.74206,10.28251 -26.80583,18.97697 -44.11186,32.19451 z"
       id="path17"
       sodipodi:nodetypes="cccccccccccccc" /><path
       style="fill:#a82740;fill-opacity:1;stroke:none;stroke-width:0.188976;stroke-dasharray:none"
       d="m 160.75067,155.90557 c 1.02766,7.34763 0.97471,15.17553 0.97228,22.98097 -0.19289,2.65165 -0.67215,5.3033 -2.20971,7.95495 l -5.74525,-0.61871 c 3.10066,-9.29049 4.17238,-18.34228 4.45257,-27.30095 z"
       id="path19"
       sodipodi:nodetypes="cccccc" /><path
       style="fill:#d93b4a;fill-opacity:1;stroke:none;stroke-width:0.188976;stroke-dasharray:none"
       d="m 158.25,158.8125 -7.5625,8.125 -18.48438,25.75781 c 4.38014,-2.47206 9.12539,-4.8063 14.17188,-6.69531 2.58421,0.125 5.31401,0.25 8.0625,0.375 2.17971,-9.15114 3.70929,-18.32829 3.8125,-27.5625 z"
       id="path20"
       sodipodi:nodetypes="cccccc" /><path
       style="fill:#ec8568;fill-opacity:1;stroke:none;stroke-width:0.188976;stroke-dasharray:none"
       d="m 134.58773,194.7412 c -2.79485,1.077 -4.95622,1.22799 -6.71752,1.32582 -2.28375,0.0553 9.65478,-6.71107 18.208,-10.16466 6.36337,-0.0179 11.53594,0.4222 15.73313,1.23744 19.20922,-3.81435 44.3054,-11.5653 56.74533,-10.73918 3.31575,0.18397 6.80531,-0.19696 8.83883,4.15425 0.97232,1.85998 1.31893,6.69378 -0.26517,11.66726 -1.97694,2.46619 -5.8489,3.81956 -10.34143,4.15425 -16.23645,1.78533 -35.13448,1.44628 -53.2098,0.44195 -5.08225,0.93495 -10.43261,0.8272 -16.26345,-1.14905 l -5.21492,-0.88389 c -2.591,1.27086 -5.13336,2.53478 -8.92722,3.97748 -1.66049,0.72742 -3.24942,0.26145 -3.18198,-0.53033 z"
       id="path23"
       sodipodi:nodetypes="cccccccccccccc" /><path
       style="fill:#e35e20;fill-opacity:1;stroke:none;stroke-width:0.188976;stroke-dasharray:none"
       d="m 143.21875,194.9375 -3.0625,3.90625 6.90625,-3.1875 c 0,0 -3.84375,-0.75 -3.84375,-0.71875 z"
       id="path24" /><rect
       style="fill:#ffffff;fill-opacity:1;stroke:#000000;stroke-width:4.73575;stroke-dasharray:none"
       id="rect25"
       width="113"
       height="228"
       x="273"
       y="69.5"
       ry="18.705101" /><path
       style="fill:#edaa4d;fill-opacity:1;stroke:none;stroke-width:4.73575;stroke-dasharray:none"
       d="m 256.0851,145.75131 c -0.19739,2.03112 1.25752,3.83907 3.88909,3.53553 h 7.95495 v 7.07107 l 7.07107,-6.89429 h 56.56854 c 3.40486,0.0998 4.38577,-1.23628 4.41942,-3.88909 V 110.9263 c 0.13096,-2.78157 -1.20824,-4.53765 -3.71231,-4.5962 H 261.3884 c -2.55709,0.0166 -5.24817,0.95113 -5.3033,3.88909 z"
       id="path26"
       sodipodi:nodetypes="cccccccccccc" /><path
       style="fill:#edaa4d;fill-opacity:1;stroke:#ffffff;stroke-width:4.73575;stroke-dasharray:none"
       d="m 282.90338,122.39534 h 36.76955"
       id="path27" /><path
       style="fill:#edaa4d;fill-opacity:1;stroke:#ffffff;stroke-width:4.04836;stroke-dasharray:none"
       d="m 292.80288,134.41616 h 26.87005"
       id="path28" /><path
       style="fill:#ea494f;fill-opacity:1;stroke:none;stroke-width:4.73575;stroke-dasharray:none"
       d="m 401.47916,252.00131 c 0.19739,2.03112 -1.25752,3.83907 -3.88909,3.53553 h -7.95495 v 7.07107 l -7.07107,-6.89429 h -56.56854 c -3.40486,0.0998 -4.38577,-1.23628 -4.41942,-3.88909 V 217.1763 c -0.13096,-2.78157 1.20824,-4.53765 3.71231,-4.5962 h 70.88746 c 2.55709,0.0166 5.24817,0.95113 5.3033,3.88909 z"
       id="path29"
       sodipodi:nodetypes="cccccccccccc" /><path
       style="fill:#edaa4d;fill-opacity:1;stroke:#ffffff;stroke-width:4.73575;stroke-dasharray:none"
       d="M 374.66088,228.64534 H 337.89133"
       id="path30" /><path
       style="fill:#edaa4d;fill-opacity:1;stroke:#ffffff;stroke-width:4.04836;stroke-dasharray:none"
       d="M 364.76138,240.66616 H 337.89133"
       id="path31" /><path
       style="fill:#000000;fill-opacity:1;stroke:none;stroke-width:4.73575;stroke-dasharray:none"
       d="m 321.26392,71.572039 c 0,0 0.55411,5.576139 6.54074,5.568466 5.2914,-0.0068 5.78944,-5.789437 5.78944,-5.789437 z"
       id="path32"
       sodipodi:nodetypes="cscc" /><circle
       style="fill:#3d9496;fill-opacity:1;stroke:none;stroke-width:4.73575;stroke-dasharray:none"
       id="path33"
       cx="414.625"
       cy="316.625"
       r="8" /><circle
       style="fill:#3d9496;fill-opacity:1;stroke:none;stroke-width:7.03797;stroke-dasharray:none"
       id="circle33"
       cx="113.79657"
       cy="303.92831"
       r="11.889088" /><circle
       style="fill:#e5ac54;fill-opacity:1;stroke:none;stroke-width:4.73575;stroke-dasharray:none"
       id="path34"
       cx="145.87424"
       cy="306.55966"
       r="5.9662132" /><circle
       style="fill:#e5ac54;fill-opacity:1;stroke:none;stroke-width:8.94531;stroke-dasharray:none"
       id="circle34"
       cx="542.91467"
       cy="80.639046"
       r="11.269514" /><circle
       style="fill:#142853;fill-opacity:1;stroke:none;stroke-width:4.73575;stroke-dasharray:none"
       id="path35"
       cx="135.42741"
       cy="329.26825"
       r="3.8448932" /><path
       style="fill:none;fill-opacity:1;stroke:#000000;stroke-width:0.956221;stroke-dasharray:3.82488, 0.956221;stroke-dashoffset:0"
       d="m 284.3176,299.34882 c -16.2804,13.17207 -83.30637,11.36637 -80.25663,-24.04163 5.41727,-7.64083 12.61095,-8.20083 17.32412,-3.88909 3.6511,3.52361 -8.0773,8.10686 -17.27993,3.8007 -9.88727,-5.60796 -10.14753,-15.81273 -10.78338,-23.02517"
       id="path36"
       sodipodi:nodetypes="ccccc" /><path
       style="fill:#841819;fill-opacity:1;stroke:none;stroke-width:0.200315;stroke-dasharray:none;stroke-dashoffset:0"
       d="m 502.65404,258.4009 c 2.82302,-0.51618 5.91843,-6.03864 6.55948,-6.94603 4.08067,0.61357 18.15608,6.27189 22.78649,9.92014 2.16168,1.84177 2.98399,4.83533 3.5,7.375 11.03354,-6.73931 18.59602,-13.42681 18.5,-20 -0.4553,-3.0814 -3.58271,-6.16008 -7.75,-8.125 -9.70225,-3.84546 -16.52246,-9.1709 -21.875,-15.25 -5.64329,-9.65578 -6.39851,-22.44745 -17.375,-29.50001 -9.42032,-2.65326 -23.81835,-3.87555 -28.875,3 -2.03453,1.29009 -3.20792,3.4751 -2.25,7.875 -3.00389,2.53605 -6.02129,9.02745 -3.875,16.00001 -0.82641,1.57788 -1.17218,4.38406 -1.25,7.875 0.60689,2.67352 1.61036,3.91937 2.625,5.125 -0.96848,-2.85536 -1.68913,-6.11786 -1.5,-10.875 3.74733,4.84182 3.99071,4.9083 3.875,4.125 -0.44146,-2.16667 -0.75772,-4.33333 -1.875,-6.5 2.3216,-5.89461 5.68278,-12.86266 6.5,-11.25 5.70805,9.71634 14.4154,14.79742 21.75,22 7.72696,5.76432 8.96722,18.67688 0.52903,25.15089 z"
       id="path40"
       sodipodi:nodetypes="ccccccccccccccccccc" /><path
       style="fill:#511110;fill-opacity:1;stroke:none;stroke-width:0.200315;stroke-dasharray:none;stroke-dashoffset:0"
       d="m 504.522,235.18355 c -0.31994,-3.36587 2.88195,-6.27868 5.71621,-5.97089 7.39403,1.54934 12.29414,5.58302 13.52342,8.52948 0.7308,3.99772 -2.2982,9.49424 -6.23138,15.82151 l -8.33554,-2.42255 c 2.37485,-8.37286 0.51133,-13.0573 -4.67271,-15.95755 z"
       id="path41"
       sodipodi:nodetypes="cccccc" /><path
       style="fill:none;fill-opacity:1;stroke:#552200;stroke-width:0.200315;stroke-dasharray:none;stroke-dashoffset:0"
       d="m 523.50001,224.37501 c 2.62228,6.8087 2.97662,14.14481 7,19.75 7.05239,9.11023 14.35206,9.0471 18.875,14 2.33552,3.46988 -2.04491,8.53037 -12.375,15"
       id="path42"
       sodipodi:nodetypes="cccc" /><path
       style="fill:#a32c2c;fill-opacity:1;stroke:none;stroke-width:0.200315;stroke-dasharray:none;stroke-dashoffset:0"
       d="m 524.252,224.98699 c 2.68899,9.79247 18.46734,19.51721 25.48437,23.13282 2.47685,1.56619 2.00116,4.48118 1.6875,7.0625 1.91856,-2.00863 2.50765,-4.21869 2.48798,-6.52099 -0.0557,-3.21376 -5.15865,-7.3169 -7.72008,-8.13349 -3.48371,-1.25526 -15.19108,-7.24588 -21.93977,-15.54084 z"
       id="path43"
       sodipodi:nodetypes="cccccc" /><path
       style="fill:#ea5323;fill-opacity:1;stroke:none;stroke-width:0.200315;stroke-dasharray:none;stroke-dashoffset:0"
       d="m 480.98167,204.41972 c 0.5038,3.36683 4.56983,8.65726 10.96015,15.20281 1.44116,-0.35308 3.86242,0.38285 7.42462,2.38648 l 1.76777,-2.65165 c -2.31735,-1.50893 -4.75249,-3.02479 -5.12652,-4.41941 6.47384,3.24475 12.93744,6.74021 19.18027,15.64473 l 1.23744,0.44195 c -1.91782,-4.79772 -3.76322,-12.97319 -18.38478,-17.05896 -6.62197,-1.62256 -12.20345,-4.97927 -17.05895,-9.54595 z"
       id="path44"
       sodipodi:nodetypes="ccccccccc" /><path
       style="fill:#d9c6bc;fill-opacity:1;stroke:none;stroke-width:0.200315;stroke-dasharray:none;stroke-dashoffset:0"
       d="m 475.24447,211.9921 c 0.38356,1.14696 -0.99898,6.99317 -2.83647,8.6469 -1.05843,-2.4114 0.89671,-8.36182 2.83647,-8.6469 z"
       id="path45"
       sodipodi:nodetypes="ccc" /><path
       style="fill:#ed8563;fill-opacity:1;stroke:none;stroke-width:0.200315;stroke-dasharray:none;stroke-dashoffset:0"
       d="m 491.96392,219.60043 9.61223,9.92159 c 1.69285,0.1086 3.31854,0.39267 4.41942,-0.26516 6.09758,-3.5059 4.80976,-13.54749 1.19324,-13.92117 -2.21503,-0.24563 -4.43576,1.19084 -6.05459,4.06587 l -1.81197,2.43068 c -2.94672,-1.67694 -5.47126,-2.55642 -7.35833,-2.23181 z"
       id="path46"
       sodipodi:nodetypes="ccccccc" /><path
       style="fill:#e55427;fill-opacity:1;stroke:none;stroke-width:0.200315;stroke-dasharray:none;stroke-dashoffset:0"
       d="m 490.04147,242.38253 v 3.27037 c 5.32884,-2.51579 10.46051,-5.01384 13.71169,-10.9924 l -3.59122,-3.37071 c -1.77823,3.63111 -5.52427,7.34422 -10.12047,11.09274 z"
       id="path49"
       sodipodi:nodetypes="ccccc" /><path
       style="fill:#ce8643;fill-opacity:1;stroke:none;stroke-width:0.200315;stroke-dasharray:none;stroke-dashoffset:0"
       d="m 510.18751,279.00445 8.0625,-3.5625 c 3.44002,6.83333 4.14076,13.66667 4.8125,20.5 -7.88311,6.1591 -16.79318,8.72386 -26,10.25 8.65008,-4.47818 14.35458,-15.05152 13.125,-27.1875 z"
       id="path53"
       sodipodi:nodetypes="ccccc" /><path
       style="fill:#ed8463;fill-opacity:1;stroke:none;stroke-width:0.200315;stroke-dasharray:none;stroke-dashoffset:0"
       d="m 491.31251,306.81251 -3.4375,7 c -4.8388,-0.217 -6.68688,-1.18684 -7.8125,-1 -1.59615,0.2715 -1.38874,-1.07882 -0.8125,-1.5 l -12.0625,2.8125 c -0.37779,0.032 -0.47361,-0.52894 -0.25,-0.75 l 1.5625,-1.375 -2.375,0.0625 c -0.42975,0.0283 -0.53446,-0.90468 -0.25,-1.125 3.53598,-2.38363 7.65233,-3.73005 11.9375,-5.28125 3.55271,-1.05886 9.30134,-0.26376 13.5,1.15625 z"
       id="path54"
       sodipodi:nodetypes="ccccccccccc" /><path
       style="fill:#e24c23;fill-opacity:1;stroke:none;stroke-width:0.200315;stroke-dasharray:none;stroke-dashoffset:0"
       d="m 434.25001,257.93751 c 2.46964,0.42331 4.91406,1.00221 7.625,-0.0625 l -0.6875,-2.625 c -1.35828,1.4438 -4.08226,2.33441 -6.9375,2.6875 z"
       id="path55"
       sodipodi:nodetypes="cccc" /><path
       style="fill:#ec8462;fill-opacity:1;stroke:none;stroke-width:0.200315;stroke-dasharray:none;stroke-dashoffset:0"
       d="m 443.90626,260.40626 -2.59375,-1.5625 -0.125,-4.0625 1.4375,-0.0625 c 3.75953,-3.65977 4.58423,-10.55555 7.65625,-13.09375 -1.02962,-1.24418 -4.16212,0.34142 -4.2904,0.72698 l -2.7721,4.52302 c -0.65625,0.78302 -1.3125,0.59936 -1.96875,0.0937 l -3.5,-7.65625 -3.40625,-13 c -0.25066,-0.80275 -2.24408,-0.47838 -2.25,0.375 l 1.375,12.96875 -8.53125,-13.25 c -0.66567,-0.65269 -2.20217,0.20343 -1.8125,1.09375 l 6.47097,13.21306 c -0.10179,0.55332 -0.75128,1.12365 -1.56472,0.94319 l -9.84375,-5.5625 c -1.45055,-0.35352 -2.62219,1.1869 -1.45312,2.0625 l 9.125,5.20312 c -0.13328,0.46497 -0.44087,0.81373 -1.01563,0.98438 l -6.21875,-1.3437 c -1.0728,-0.27301 -2.28787,0.61344 -1.21875,1.25 l 7.875,3.1875 c 1.0525,3.93676 2.85689,7.29041 6.78125,9 l 0.0312,1.8125 -1.375,0.125 c 5.12402,5.35819 9.21215,4.05709 13.18755,2.03125 z"
       id="path56"
       sodipodi:nodetypes="ccccccccccccccccccccccccccc" /></g></svg>
